<svg width="163" height="20" viewBox="0 0 163 20" fill="none" xmlns="http://www.w3.org/2000/svg">
<path d="M145.399 19.6419L140.468 0.358154H142.851L146.735 15.5785L150.605 0.358154H152.685L156.57 15.5785L160.44 0.358154H162.823L157.92 19.6419H155.22L151.652 5.67496L148.085 19.6419H145.399Z" fill="#29292C"/>
<path d="M126.835 19.6419V0.358154H138.667V2.6722H129.149V8.1543H136.945V10.4683H129.149V17.3279H138.667V19.6419H126.835Z" fill="#29292C"/>
<path d="M121.342 19.6419V0.358154H123.656V19.6419H121.342Z" fill="#29292C"/>
<path d="M109.114 19.6419L102.117 0.358154H104.568L110.546 16.8182L116.538 0.358154H118.976L111.979 19.6419H109.114Z" fill="#29292C"/>
<path d="M91.6841 8.88086H100.293V11.0331H91.6841V8.88086Z" fill="#29292C"/>
<path d="M77.1167 19.6419V0.358154H88.9486V2.6722H79.4307V8.1543H87.2269V10.4683H79.4307V17.3279H88.9486V19.6419H77.1167Z" fill="#29292C"/>
<path d="M61.7415 19.6419V0.358154H68.5183C69.5468 0.358154 70.4742 0.61068 71.3007 1.11573C72.1363 1.62078 72.7975 2.30489 73.2841 3.16807C73.78 4.02207 74.0279 4.97707 74.0279 6.03309C74.0279 6.96054 73.8443 7.80535 73.477 8.56752C73.1097 9.32969 72.6046 9.96789 71.9618 10.4821C71.3282 10.9872 70.6074 11.3361 69.7993 11.529L74.4825 19.6419H71.8103L67.2098 11.7218H64.0555V19.6419H61.7415ZM64.0555 9.40774H68.2841C68.9086 9.40774 69.4825 9.25623 70.0059 8.9532C70.5293 8.64098 70.9425 8.22317 71.2456 7.69975C71.5578 7.16715 71.7139 6.57028 71.7139 5.90912C71.7139 5.23878 71.5578 4.6419 71.2456 4.11848C70.9425 3.58589 70.5293 3.16807 70.0059 2.86504C69.4825 2.55283 68.9086 2.39672 68.2841 2.39672H64.0555V9.40774Z" fill="#29292C"/>
<path d="M50.0732 20C48.7693 20 47.5434 19.7429 46.3955 19.2286C45.2477 18.7052 44.2376 17.9844 43.3652 17.0661C42.4929 16.1478 41.8088 15.0872 41.3129 13.8843C40.817 12.6722 40.5691 11.3774 40.5691 10C40.5691 8.62259 40.817 7.33242 41.3129 6.12948C41.8088 4.91736 42.4929 3.85216 43.3652 2.93388C44.2376 2.01561 45.2477 1.29936 46.3955 0.785124C47.5434 0.261708 48.7693 0 50.0732 0C51.3863 0 52.6168 0.261708 53.7647 0.785124C54.9125 1.29936 55.9226 2.01561 56.795 2.93388C57.6673 3.85216 58.3468 4.91736 58.8335 6.12948C59.3294 7.33242 59.5773 8.62259 59.5773 10C59.5773 11.3774 59.3294 12.6722 58.8335 13.8843C58.3468 15.0872 57.6673 16.1478 56.795 17.0661C55.9226 17.9844 54.9125 18.7052 53.7647 19.2286C52.6168 19.7429 51.3863 20 50.0732 20ZM50.0732 17.686C51.0741 17.686 52.0062 17.4839 52.8693 17.0799C53.7417 16.6758 54.5039 16.1203 55.1558 15.4132C55.817 14.697 56.3312 13.8797 56.6985 12.9614C57.075 12.034 57.2633 11.0468 57.2633 10C57.2633 8.95317 57.075 7.96602 56.6985 7.03857C56.322 6.10193 55.8032 5.28467 55.1421 4.58678C54.4901 3.87971 53.7279 3.32415 52.8556 2.92011C51.9924 2.51607 51.0649 2.31405 50.0732 2.31405C49.0723 2.31405 48.1357 2.51607 47.2633 2.92011C46.4001 3.32415 45.638 3.8843 44.9768 4.60055C44.3248 5.30762 43.8106 6.12489 43.4341 7.05234C43.0668 7.97062 42.8831 8.95317 42.8831 10C42.8831 11.056 43.0714 12.0478 43.4479 12.9752C43.8244 13.9027 44.3386 14.7199 44.9906 15.427C45.6517 16.1341 46.4139 16.6896 47.2771 17.0937C48.1494 17.4885 49.0815 17.686 50.0732 17.686Z" fill="#29292C"/>
<path d="M17.7278 19.6419L21.4606 0.358154H23.2374L28.444 14.0496L33.6368 0.358154H35.4137L39.1602 19.6419H36.8049L34.0914 5.64741L29.2016 18.5951H27.6727L22.7829 5.64741L20.0832 19.6419H17.7278Z" fill="#29292C"/>
<path d="M7.01101 0.271973H9.80714L16.8181 19.5557H14.3664L11.1914 11.6787H5.59572L2.46556 19.5557H0L7.01101 0.271973ZM6.02616 9.31123H10.761L8.40219 3.23341L6.02616 9.31123Z" fill="#29292C"/>
</svg>
