<svg width="64" height="64" viewBox="0 0 64 64" fill="none" xmlns="http://www.w3.org/2000/svg">
<path fill-rule="evenodd" clip-rule="evenodd" d="M32.5003 8.42857C30.5112 8.42857 28.6036 9.21875 27.197 10.6253C25.7905 12.0318 25.0003 13.9394 25.0003 15.9286V22.3571C25.0003 23.2096 24.6617 24.0272 24.0589 24.63C23.4561 25.2328 22.6385 25.5714 21.7861 25.5714C20.9336 25.5714 20.116 25.2328 19.5132 24.63C18.9104 24.0272 18.5718 23.2096 18.5718 22.3571V15.9286C18.5718 12.2345 20.0392 8.6917 22.6514 6.07958C25.2635 3.46747 28.8063 2 32.5003 2C36.1944 2 39.7372 3.46747 42.3493 6.07958C44.9615 8.6917 46.4289 12.2345 46.4289 15.9286V22.3571C46.4289 23.2096 46.0903 24.0272 45.4875 24.63C44.8847 25.2328 44.0671 25.5714 43.2146 25.5714C42.3622 25.5714 41.5446 25.2328 40.9418 24.63C40.339 24.0272 40.0003 23.2096 40.0003 22.3571V15.9286C40.0003 13.9394 39.2102 12.0318 37.8036 10.6253C36.3971 9.21875 34.4895 8.42857 32.5003 8.42857Z" fill="#08C481"/>
<path d="M11.0719 18.77C10.545 18.7699 10.0366 18.9638 9.64367 19.3148C9.25076 19.6659 9.00093 20.1493 8.94192 20.6729L5.31192 53.2272L5.26906 53.5272C5.18335 54.2257 5.03335 55.3743 5.26478 56.4843C5.75335 58.8286 7.53621 60.7529 9.86335 61.3957C10.9091 61.6872 12.1005 61.6529 12.8248 61.6357L13.2105 61.6272H51.7819L52.1719 61.6357C52.9005 61.6529 54.0876 61.6872 55.1376 61.3957C57.4562 60.7529 59.2433 58.8243 59.7362 56.4843C59.9676 55.3743 59.8176 54.2257 59.7233 53.5272L59.6891 53.2272L56.0591 20.6729C56 20.1493 55.7502 19.6659 55.3573 19.3148C54.9644 18.9638 54.4559 18.7699 53.9291 18.77H11.0719Z" fill="#5AD7AB"/>
</svg>
